<svg id="Layer_1" data-name="Layer 1" xmlns="http://www.w3.org/2000/svg" viewBox="0 0 792 1224"><defs><style>.cls-1{fill:#ff6d00;}.cls-2{fill:#fa0;}</style></defs><title>rapviz-logoonly</title><path class="cls-1" d="M276.7,483.38a7.32,7.32,0,0,0-1,2.67c-3.48,11.81-6.38,23.83-10.54,35.4-7,19.42-16.71,37.37-31.57,52.11-.84.84-1.76,1.59-3.08,2.77,2.65-58-22.78-100.64-68-133.06a2.64,2.64,0,0,0,0,1.86c6.79,20.74,7.62,42.08,4.12,63.28-2.67,16.12-7,32-11.75,47.71-8.74,29-19.1,57.43-25.68,87-4.54,20.39-8,40.93-9.12,61.79a431.5,431.5,0,0,0,2,74.35c2.89,24.32,7.18,48.26,16.42,71.17A225.2,225.2,0,0,0,168.8,904,231.53,231.53,0,0,0,241,965.7c12.22,6.76,24.25,14.36,38.52,16.49,2.38,3.47,6.31,3.36,9.79,4.37,9.3,2.72,18.53,5.63,27.84,8.3,3.61,1,7.35,1.65,11.66,2.59,0,0,47.21,11.77,113.84.75,22.54-3.82,44.72-11.26,66.06-21.21a286.94,286.94,0,0,0,68-44.65,283.94,283.94,0,0,0,65.66-83.62c9.3-17.93,15.63-37,20.53-56.59,7.11-28.41,10.22-57.26,10.38-86.48A374.67,374.67,0,0,0,662,611.34c-2.29-9.05-5.22-17.93-7.86-26.89a270,270,0,0,0-21.88-52.66c-8-14.7-17.12-28.8-26.15-42.91-4.1-6.4-9.17-12.18-14.26-18.84,1.25,10.55,2.54,20.13,3.49,29.75,2.9,29.29,2.16,58.39-4.6,87.19-4.27,18.23-10.74,35.51-21,51.26-1.58,2.44-3.53,4.63-6,7.77-.32-2.16-.51-3.16-.6-4.17-.56-6.08-.95-12.19-1.64-18.26-2.26-19.65-5.51-39.08-11-58.17-5.41-18.91-12.84-37-23.23-53.56-9.62-15.37-20.26-30.12-30.92-44.8-7.32-10.07-15.57-19.44-23.16-29.33-12.44-16.21-24.82-32.48-36.92-48.94a204.82,204.82,0,0,1-12.47-19.73c-11-19.3-20.36-39.3-25.85-61-6.16-24.33-7.08-48.53.75-72.68,1.6-4.94,3.27-9.85,5.08-15.31a24.25,24.25,0,0,0-3.37,1.19C388.94,227.62,377,233.36,366,240.52,346.83,253,331,269.18,318,288a191,191,0,0,0-26.8,59.3c-5.77,21.69-7.84,43.8-7.94,66.2-.06,11.25-1.08,22.5-1.59,33.75S276.7,483.38,276.7,483.38Zm273.68,242-.62.42.62-.42Z"/><path class="cls-2" d="M282.67,516.3a6.28,6.28,0,0,0-.86,2.25c-2.93,9.94-5.37,20.06-8.87,29.8-5.88,16.35-14.07,31.46-26.57,43.87-.71.7-1.49,1.34-2.6,2.33,2.23-48.82-19.17-84.72-57.27-112a2.23,2.23,0,0,0,0,1.57c5.72,17.46,6.42,35.41,3.47,53.27-2.25,13.56-5.91,27-9.89,40.15-7.36,24.38-16.08,48.35-21.62,73.27-3.82,17.16-6.72,34.44-7.68,52a363.59,363.59,0,0,0,1.69,62.59c2.43,20.47,6,40.62,13.82,59.9a189.57,189.57,0,0,0,25.57,45.08,195,195,0,0,0,60.76,51.93C262.89,928,273,934.4,285,936.2c2,2.91,5.31,2.82,8.24,3.67,7.83,2.29,15.6,4.74,23.43,7,3,.87,6.19,1.38,9.82,2.18,0,0,39.74,9.9,95.83.63A219.11,219.11,0,0,0,478,931.82a241.78,241.78,0,0,0,57.21-37.59,239.1,239.1,0,0,0,55.27-70.39c7.84-15.1,13.16-31.14,17.28-47.63a305.48,305.48,0,0,0,8.74-72.81A315,315,0,0,0,607,624c-1.92-7.62-4.39-15.1-6.61-22.64a227.23,227.23,0,0,0-18.42-44.33c-6.73-12.37-14.41-24.24-22-36.12-3.45-5.39-7.72-10.25-12-15.86,1.05,8.88,2.13,16.95,2.94,25,2.43,24.66,1.81,49.16-3.88,73.4-3.59,15.35-9,29.89-17.66,43.15-1.34,2.05-3,3.9-5,6.54-.27-1.82-.43-2.66-.51-3.51-.46-5.12-.79-10.26-1.38-15.37a302.23,302.23,0,0,0-9.22-49,175,175,0,0,0-19.55-45.09c-8.1-12.94-17.06-25.35-26-37.71-6.16-8.48-13.11-16.37-19.49-24.69-10.48-13.65-20.9-27.34-31.09-41.2a171.3,171.3,0,0,1-10.49-16.61c-9.27-16.24-17.14-33.08-21.76-51.32-5.19-20.48-6-40.86.63-61.18,1.34-4.16,2.75-8.3,4.28-12.89a20.38,20.38,0,0,0-2.84,1c-9.71,5.34-19.75,10.17-29,16.19a144.61,144.61,0,0,0-40.39,40,160.74,160.74,0,0,0-22.56,49.92c-4.85,18.25-6.6,36.86-6.69,55.72,0,9.47-.9,18.94-1.33,28.42S282.67,516.3,282.67,516.3ZM513.05,720l-.53.36.53-.36Z"/><path class="cls-1" d="M243.27,595.55c1.11-1,1.89-1.63,2.6-2.33,12.5-12.41,20.69-27.52,26.57-43.87,3.5-9.74,5.94-19.86,8.87-29.8a6.28,6.28,0,0,1,.86-2.25s3.78-20.9,4.21-30.37,1.29-18.95,1.33-28.42c.09-18.86,1.84-37.47,6.69-55.72A160.74,160.74,0,0,1,317,352.87a144.61,144.61,0,0,1,40.39-40c9.26-6,19.3-10.85,29-16.19a20.38,20.38,0,0,1,2.84-1c-1.53,4.59-2.94,8.73-4.28,12.89-6.59,20.32-5.82,40.7-.63,61.18,4.62,18.24,12.49,35.08,21.76,51.32a171.3,171.3,0,0,0,10.49,16.61c10.19,13.86,20.61,27.55,31.09,41.2,6.38,8.32,13.33,16.21,19.49,24.69,9,12.36,17.93,24.77,26,37.71a175,175,0,0,1,19.55,45.09,302.23,302.23,0,0,1,9.22,49c.59,5.11.92,10.25,1.38,15.37.08.85.24,1.69.51,3.51,2-2.64,3.68-4.49,5-6.54,8.62-13.26,14.07-27.8,17.66-43.15A197.72,197.72,0,0,0,551.3,571c-.41-1.53-.81-3.07-1.24-4.6-5.41-18.91-12.84-37-23.23-53.56-9.62-15.37-20.26-30.12-30.92-44.8-7.32-10.07-15.57-19.44-23.16-29.33-12.44-16.21-24.82-32.48-36.92-48.94a204.82,204.82,0,0,1-12.47-19.73c-11-19.3-20.36-39.3-25.85-61-6.16-24.33-7.08-48.53.75-72.68,1.6-4.94,3.27-9.85,5.08-15.31a24.25,24.25,0,0,0-3.37,1.19c-11.53,6.34-23.46,12.08-34.46,19.24-19.18,12.48-35.06,28.66-48,47.52a191,191,0,0,0-26.8,59.3c-5.77,21.69-7.84,43.8-7.94,66.2-.06,11.25-1.08,22.5-1.59,33.75s-5,36.09-5,36.09a7.32,7.32,0,0,0-1,2.67c-3.48,11.81-6.38,23.83-10.54,35.4-5.58,15.52-12.92,30.1-23.23,42.85A135.28,135.28,0,0,1,243.27,595.55Z"/><path class="cls-1" d="M661.46,612.34c-2.29-9.05-5.22-17.93-7.86-26.89a270,270,0,0,0-21.88-52.66c-8-14.7-17.12-28.8-26.15-42.91-4.1-6.4-9.17-12.18-14.26-18.84,1.25,10.55,2.54,20.13,3.49,29.75,2.63,26.57,2.25,53-2.89,79.16a222.72,222.72,0,0,1,8,22.43c2.22,7.54,4.69,15,6.61,22.64A315,315,0,0,1,616,704.4a305.48,305.48,0,0,1-8.74,72.81c-4.12,16.49-9.44,32.53-17.28,47.63a239.1,239.1,0,0,1-55.27,70.39,241.78,241.78,0,0,1-57.21,37.59,219.11,219.11,0,0,1-55.61,17.85C365.76,959.94,326,950,326,950c-3.63-.8-6.78-1.31-9.82-2.18-7.83-2.25-15.6-4.7-23.43-7-2.93-.85-6.24-.76-8.24-3.67-12-1.8-22.14-8.2-32.43-13.89a195,195,0,0,1-60.76-51.93,189.57,189.57,0,0,1-25.57-45.08C158,807,154.38,786.87,152,766.4a363.59,363.59,0,0,1-1.69-62.59c1-17.57,3.86-34.85,7.68-52,5.54-24.92,14.26-48.89,21.62-73.27,4-13.18,7.64-26.59,9.89-40.15,3-17.86,2.25-35.81-3.47-53.27a2.23,2.23,0,0,1,0-1.57c14.33,10.26,26.29,21.75,35.53,34.68-10.79-29.47-31.32-53.7-59.58-74a2.64,2.64,0,0,0,0,1.86c6.79,20.74,7.62,42.08,4.12,63.28-2.67,16.12-7,32-11.75,47.71-8.74,29-19.1,57.43-25.68,87-4.54,20.39-8,40.93-9.12,61.79a431.5,431.5,0,0,0,2,74.35c2.89,24.32,7.18,48.26,16.42,71.17A225.2,225.2,0,0,0,168.3,905a231.53,231.53,0,0,0,72.18,61.69c12.22,6.76,24.25,14.36,38.52,16.49,2.38,3.47,6.31,3.36,9.79,4.37,9.3,2.72,18.53,5.63,27.84,8.3,3.61,1,7.35,1.65,11.66,2.59,0,0,47.21,11.77,113.84.75,22.54-3.82,44.72-11.26,66.06-21.21a286.94,286.94,0,0,0,68-44.65,283.94,283.94,0,0,0,65.66-83.62c9.3-17.93,15.63-37,20.53-56.59,7.11-28.41,10.22-57.26,10.38-86.48A374.67,374.67,0,0,0,661.46,612.34Z"/><path class="cls-1" d="M512.55,721l-.53.36.53-.36Z"/></svg>
